<?xml version="1.0" encoding="UTF-8"?>
<svg version="1.1" xmlns="http://www.w3.org/2000/svg" width="48" height="48">
<path d="M0 0 C2.70894767 -0.08144943 5.41541263 -0.14070614 8.125 -0.1875 C8.88554687 -0.21263672 9.64609375 -0.23777344 10.4296875 -0.26367188 C15.36453545 -0.32748456 18.73708138 0.22274533 23 3 C23.6875 5.125 23.6875 5.125 24 7 C24.99 7.33 25.98 7.66 27 8 C27 17.9 27 27.8 27 38 C20.23825645 41.38087177 20.23825645 41.38087177 16.25 41.3984375 C15.3940625 41.40230469 14.538125 41.40617187 13.65625 41.41015625 C12.7796875 41.39855469 11.903125 41.38695312 11 41.375 C9.68515625 41.39240234 9.68515625 41.39240234 8.34375 41.41015625 C3.12612193 41.38658263 -0.49871819 40.89181186 -5 38 C-5.8674585 37.44562256 -6.73491699 36.89124512 -7.62866211 36.32006836 C-10 34 -10 34 -10.63110352 30.83959961 C-10.63037842 29.62280518 -10.62965332 28.40601074 -10.62890625 27.15234375 C-10.63131821 26.49923721 -10.63373016 25.84613068 -10.63621521 25.17323303 C-10.63523864 23.79731146 -10.62188962 22.42134969 -10.59692383 21.0456543 C-10.562539 18.93988841 -10.57628387 16.83830493 -10.59570312 14.73242188 C-10.58880601 13.39321132 -10.57913482 12.05401157 -10.56640625 10.71484375 C-10.55552979 9.49917725 -10.54465332 8.28351074 -10.53344727 7.03100586 C-10 4 -10 4 -8.15209961 2.01782227 C-6 1 -6 1 -3 2 C-3 2.99 -3 3.98 -3 5 C-3.66 5.66 -4.32 6.32 -5 7 C-4.113125 6.690625 -3.22625 6.38125 -2.3125 6.0625 C0.46709155 5.1709329 3.13136375 4.50622993 6 4 C4.02 4 2.04 4 0 4 C0 2.68 0 1.36 0 0 Z M-6 12 C-5 15 -5 15 -5 15 Z M-6 20 C-5 24 -5 24 -5 24 Z M-6 28 C-5 32 -5 32 -5 32 Z " fill="#21234A" transform="translate(17,5)"/>
<path d="M0 0 C0.99 0.33 1.98 0.66 3 1 C3 10.9 3 20.8 3 31 C-3.76174355 34.38087177 -3.76174355 34.38087177 -7.75 34.3984375 C-8.6059375 34.40230469 -9.461875 34.40617187 -10.34375 34.41015625 C-11.2203125 34.39855469 -12.096875 34.38695312 -13 34.375 C-13.8765625 34.38660156 -14.753125 34.39820313 -15.65625 34.41015625 C-20.87032634 34.38659868 -24.4517755 33.82767905 -29 31 C-24.4995959 29.48823635 -19.78055688 30.01299942 -15.10742188 30.21484375 C-9.98476615 30.32146478 -6.54775624 29.4066172 -2 27 C-0.5181036 24.9648239 -0.5181036 24.9648239 0 23 C-0.99 23 -1.98 23 -3 23 C-3.33 23.99 -3.66 24.98 -4 26 C-10.52806153 28.8844923 -17.9932395 28.5803407 -25 28 C-27.42578125 26.984375 -27.42578125 26.984375 -29 26 C-29 24.35 -29 22.7 -29 21 C-28.31035156 21.16242187 -27.62070312 21.32484375 -26.91015625 21.4921875 C-23.70014319 22.05232401 -20.6949472 22.13254912 -17.4375 22.125 C-16.32246094 22.12757812 -15.20742188 22.13015625 -14.05859375 22.1328125 C-11.49229238 22.02137668 -9.39927732 21.89196663 -7 21 C-6.67 20.34 -6.34 19.68 -6 19 C-6.62567871 19.00523682 -7.25135742 19.01047363 -7.89599609 19.01586914 C-10.72232057 19.03661618 -13.54862905 19.04965286 -16.375 19.0625 C-17.35984375 19.07087891 -18.3446875 19.07925781 -19.359375 19.08789062 C-20.77089844 19.09272461 -20.77089844 19.09272461 -22.2109375 19.09765625 C-23.51490479 19.10551147 -23.51490479 19.10551147 -24.84521484 19.11352539 C-27 19 -27 19 -29 18 C-29 16.35 -29 14.7 -29 13 C-22.07 13 -15.14 13 -8 13 C-7.67 12.34 -7.34 11.68 -7 11 C-7.55985596 11.00523682 -8.11971191 11.01047363 -8.6965332 11.01586914 C-11.23517737 11.03666691 -13.77380359 11.04966904 -16.3125 11.0625 C-17.63411133 11.07506836 -17.63411133 11.07506836 -18.98242188 11.08789062 C-19.82998047 11.09111328 -20.67753906 11.09433594 -21.55078125 11.09765625 C-22.33106689 11.10289307 -23.11135254 11.10812988 -23.9152832 11.11352539 C-26 11 -26 11 -29 10 C-29 8.35 -29 6.7 -29 5 C-28.42556152 5.00523682 -27.85112305 5.01047363 -27.25927734 5.01586914 C-24.63119623 5.03678576 -22.00313271 5.04970659 -19.375 5.0625 C-18.47136719 5.07087891 -17.56773438 5.07925781 -16.63671875 5.08789062 C-15.31220703 5.09272461 -15.31220703 5.09272461 -13.9609375 5.09765625 C-13.15446777 5.10289307 -12.34799805 5.10812988 -11.51708984 5.11352539 C-8.65680664 4.98452135 -5.82423409 4.47070568 -3 4 C-3 9.28 -3 14.56 -3 20 C-2.01 20 -1.02 20 0 20 C0 13.4 0 6.8 0 0 Z " fill="#9BA4D5" transform="translate(41,12)"/>
<path d="M0 0 C2.70894767 -0.08144943 5.41541263 -0.14070614 8.125 -0.1875 C8.88554687 -0.21263672 9.64609375 -0.23777344 10.4296875 -0.26367188 C15.39737498 -0.32790921 18.65837795 0.31522749 23 3 C24 4 24 4 24.11352539 6.22485352 C24.10828857 7.18319092 24.10305176 8.14152832 24.09765625 9.12890625 C24.09443359 10.16337891 24.09121094 11.19785156 24.08789062 12.26367188 C24.07951172 13.35228516 24.07113281 14.44089844 24.0625 15.5625 C24.05798828 16.65498047 24.05347656 17.74746094 24.04882812 18.87304688 C24.03699826 21.58208495 24.02051543 24.29101599 24 27 C23.01 27 22.02 27 21 27 C21 21.39 21 15.78 21 10 C20.34 9.67 19.68 9.34 19 9 C19 8.01 19 7.02 19 6 C16.95928485 5.66089006 14.91737379 5.32897296 12.875 5 C11.73804688 4.814375 10.60109375 4.62875 9.4296875 4.4375 C6.23862398 4.03043951 3.21182209 3.92190098 0 4 C0 2.68 0 1.36 0 0 Z " fill="#191A40" transform="translate(17,5)"/>
<path d="M0 0 C1.22879883 -0.01160156 1.22879883 -0.01160156 2.48242188 -0.0234375 C8.55906792 -0.00343208 8.55906792 -0.00343208 10.8125 2.25 C3.17488788 5.91605382 -6.03992347 6.96585884 -14.1875 4.25 C-14.1875 3.59 -14.1875 2.93 -14.1875 2.25 C-9.48703116 -0.15267373 -5.14863703 -0.04930857 0 0 Z " fill="#99A1D2" transform="translate(27.1875,9.75)"/>
<path d="M0 0 C0.99 0 1.98 0 3 0 C2.6189482 2.76262553 2.16402868 3.84143894 0.125 5.8125 C-0.57625 6.204375 -1.2775 6.59625 -2 7 C-2.99 6.67 -3.98 6.34 -5 6 C-4.67 5.01 -4.34 4.02 -4 3 C-3.01 2.67 -2.02 2.34 -1 2 C-0.67 1.34 -0.34 0.68 0 0 Z " fill="#2A2C54" transform="translate(38,35)"/>
</svg>
