<?xml version="1.0" encoding="UTF-8"?>
<svg version="1.1" xmlns="http://www.w3.org/2000/svg" width="128" height="128">
<path d="M0 0 C0.7989267 -0.0033284 1.59785339 -0.0066568 2.42098999 -0.01008606 C4.10340811 -0.01511833 5.78583608 -0.01749554 7.46826172 -0.01733398 C9.99594295 -0.01950761 12.52317769 -0.03766758 15.05078125 -0.05664062 C28.91533211 -0.10581656 42.45436745 0.60809973 55.3984375 6.16796875 C57.3984375 8.16796875 57.3984375 8.16796875 57.64135742 10.56640625 C57.63724854 11.54867188 57.63313965 12.5309375 57.62890625 13.54296875 C57.62697266 14.6103125 57.62503906 15.67765625 57.62304688 16.77734375 C57.61080078 17.89625 57.59855469 19.01515625 57.5859375 20.16796875 C57.5849707 21.84632812 57.5849707 21.84632812 57.58398438 23.55859375 C57.53871909 31.88740556 57.53871909 31.88740556 56.3984375 34.16796875 C56.7284375 34.82796875 57.0584375 35.48796875 57.3984375 36.16796875 C57.4975264 38.98882404 57.53825998 41.78445883 57.53125 44.60546875 C57.53220673 45.44134521 57.53316345 46.27722168 57.53414917 47.13842773 C57.53483018 48.90706457 57.53298141 50.6757039 57.52880859 52.44433594 C57.52345921 55.15695796 57.52875625 57.8694144 57.53515625 60.58203125 C57.53449545 62.29817745 57.53321426 64.01432355 57.53125 65.73046875 C57.53327423 66.54507568 57.53529846 67.35968262 57.53738403 68.19897461 C57.51339714 73.93804947 57.51339714 73.93804947 56.3984375 76.16796875 C56.7284375 76.82796875 57.0584375 77.48796875 57.3984375 78.16796875 C57.4833525 80.05435995 57.5056305 81.9437539 57.49609375 83.83203125 C57.49125977 85.51425781 57.49125977 85.51425781 57.48632812 87.23046875 C57.47375977 88.99390625 57.47375977 88.99390625 57.4609375 90.79296875 C57.45642578 91.97632812 57.45191406 93.1596875 57.44726562 94.37890625 C57.43545217 97.30864382 57.41898008 100.23828147 57.3984375 103.16796875 C58.54699219 103.34585938 58.54699219 103.34585938 59.71875 103.52734375 C63.49472277 104.43005444 65.05335877 106.13316098 67.3984375 109.16796875 C67.47768173 112.41698203 66.79674636 113.69990995 64.703125 116.16015625 C47.87895037 130.81714907 14.12958788 127.07736494 -6.6015625 126.16796875 C-20.81628917 125.14706683 -36.12157976 123.64795149 -46.6015625 113.16796875 C-46.37737311 109.24465441 -45.64204158 108.20668787 -42.7265625 105.41796875 C-39.6015625 103.16796875 -39.6015625 103.16796875 -36.6015625 102.16796875 C-35.7580833 93.80848739 -35.49279978 85.56686785 -35.6015625 77.16796875 C-35.6015625 76.17796875 -35.6015625 75.18796875 -35.6015625 74.16796875 C-35.63159226 72.05604598 -35.66365153 69.94415187 -35.69677734 67.83227539 C-35.79309315 61.32589946 -35.86234565 54.81971979 -35.91243553 48.31282902 C-35.94379592 44.37587029 -35.98638624 40.43968673 -36.05419922 36.50317383 C-36.11939643 32.69359666 -36.15526502 28.88476654 -36.17082596 25.07467461 C-36.18190333 23.62370437 -36.20353629 22.1727747 -36.23594284 20.7221241 C-36.27949799 18.69284243 -36.28201341 16.66280555 -36.28271484 14.63305664 C-36.29603851 13.47850479 -36.30936218 12.32395294 -36.3230896 11.13441467 C-35.6015625 8.16796875 -35.6015625 8.16796875 -32.75576782 5.82713318 C-29.5381118 4.13459263 -26.77726631 3.22413916 -23.2265625 2.48046875 C-21.63714844 2.13435547 -21.63714844 2.13435547 -20.015625 1.78125 C-13.29712024 0.57437901 -6.81100495 0.01016019 0 0 Z " fill="#196172" transform="translate(53.6015625,0.83203125)"/>
<path d="M0 0 C2.02910711 0.25327449 4.04962145 0.57730068 6.0625 0.9375 C7.16722656 1.13214844 8.27195312 1.32679687 9.41015625 1.52734375 C10.69212891 1.76130859 10.69212891 1.76130859 12 2 C12 2.66 12 3.32 12 4 C30.3960754 4.79177248 48.55547748 5.50554686 66.9375 4.1875 C67.99267822 4.11748779 69.04785645 4.04747559 70.13500977 3.9753418 C75.8313635 3.52243313 80.76352782 2.69421266 86.06469727 0.5168457 C88 0 88 0 92 1 C92 4.63 92 8.26 92 12 C93.65 12.33 95.3 12.66 97 13 C99.875 15.25 99.875 15.25 102 18 C102.07924423 21.24901328 101.39830886 22.5319412 99.3046875 24.9921875 C82.48051287 39.64918032 48.73115038 35.90939619 28 35 C13.78527333 33.97909808 -1.52001726 32.47998274 -12 22 C-11.77581061 18.07668566 -11.04047908 17.03871912 -8.125 14.25 C-5 12 -5 12 -2 11 C-1.93941406 10.28972656 -1.87882812 9.57945313 -1.81640625 8.84765625 C-1.73261719 7.92855469 -1.64882813 7.00945312 -1.5625 6.0625 C-1.48128906 5.14597656 -1.40007813 4.22945313 -1.31640625 3.28515625 C-1 1 -1 1 0 0 Z " fill="#4E6B73" transform="translate(19,92)"/>
<path d="M0 0 C0.88598877 0.12600586 1.77197754 0.25201172 2.68481445 0.38183594 C6.67575257 1.00533499 9.86197825 1.67343443 13.4375 3.625 C13.4375 4.615 13.4375 5.605 13.4375 6.625 C14.06349617 8.30736471 14.72502268 9.9773962 15.4375 11.625 C18.4075 11.13 18.4075 11.13 21.4375 10.625 C21.1075 17.225 20.7775 23.825 20.4375 30.625 C14.09782088 33.34200534 10.94330591 34.12455339 4.4375 34.625 C4.4375 29.015 4.4375 23.405 4.4375 17.625 C2.973125 17.74875 1.50875 17.8725 0 18 C-1.23556641 18.10441406 -1.23556641 18.10441406 -2.49609375 18.2109375 C-3.17800781 18.34757812 -3.85992187 18.48421875 -4.5625 18.625 C-6.32765437 22.15530873 -5.97320388 26.3966168 -6.16796875 30.30273438 C-6.46170831 35.52420831 -6.46170831 35.52420831 -7.5625 36.625 C-12.18501038 37.44107548 -16.64759342 37.75313285 -21.3359375 37.7578125 C-22.57214844 37.75910156 -23.80835938 37.76039062 -25.08203125 37.76171875 C-26.35433594 37.75785156 -27.62664063 37.75398438 -28.9375 37.75 C-30.88076172 37.75580078 -30.88076172 37.75580078 -32.86328125 37.76171875 C-34.70599609 37.75978516 -34.70599609 37.75978516 -36.5859375 37.7578125 C-37.70919434 37.75668457 -38.83245117 37.75555664 -39.98974609 37.75439453 C-42.5625 37.625 -42.5625 37.625 -43.5625 36.625 C-45.07415654 36.23351239 -46.59719632 35.88527543 -48.125 35.5625 C-49.589375 35.253125 -51.05375 34.94375 -52.5625 34.625 C-52.8925 28.685 -53.2225 22.745 -53.5625 16.625 C-55.150625 16.191875 -56.73875 15.75875 -58.375 15.3125 C-62.35128538 14.22805853 -63.51914473 13.66835527 -66.5625 10.625 C-62.1075 11.615 -62.1075 11.615 -57.5625 12.625 C-57.8925 10.645 -58.2225 8.665 -58.5625 6.625 C-57.9025 6.295 -57.2425 5.965 -56.5625 5.625 C-56.5625 4.635 -56.5625 3.645 -56.5625 2.625 C-54.4391603 2.1385288 -52.31371387 1.66125128 -50.1875 1.1875 C-49.00414063 0.92066406 -47.82078125 0.65382813 -46.6015625 0.37890625 C-31.38767914 -2.68876413 -15.28266415 -2.17541114 0 0 Z " fill="#707D80" transform="translate(86.5625,3.375)"/>
<path d="M0 0 C0.09884645 5.07196349 0.17145653 10.143367 0.21972656 15.21606445 C0.23984739 16.94174973 0.26714748 18.66736678 0.30175781 20.39282227 C0.35025758 22.8727297 0.37296304 25.35173628 0.390625 27.83203125 C0.41127014 28.60400345 0.43191528 29.37597565 0.45318604 30.17134094 C0.45541986 35.49867321 0.45541986 35.49867321 -1.73657227 37.91162109 C-8.83329253 41.32410939 -16.56048771 42.65658341 -24.3125 43.6875 C-25.25891357 43.81342529 -26.20532715 43.93935059 -27.18041992 44.0690918 C-42.91845504 45.99638455 -58.35037043 45.29719333 -74 43 C-74 42.34 -74 41.68 -74 41 C-74.99 40.67 -75.98 40.34 -77 40 C-77.04898438 38.79601562 -77.09796875 37.59203125 -77.1484375 36.3515625 C-77.22346343 34.77601802 -77.29901133 33.20049834 -77.375 31.625 C-77.42140625 30.43390625 -77.42140625 30.43390625 -77.46875 29.21875 C-77.51816421 24.63332625 -77.51816421 24.63332625 -80 21 C-79.04975952 21.10610596 -79.04975952 21.10610596 -78.08032227 21.21435547 C-68.91905945 22.11489249 -59.80416271 22.15235866 -50.60913086 22.13037109 C-47.9392328 22.12500348 -45.26950239 22.13034961 -42.59960938 22.13671875 C-25.41858032 22.31461245 -25.41858032 22.31461245 -8.8125 18.4375 C-8.14669922 18.20353516 -7.48089844 17.96957031 -6.79492188 17.72851562 C-5.19257991 17.16366126 -3.59562623 16.58355561 -2 16 C-2 14.35 -2 12.7 -2 11 C-2.65846924 11.27424805 -3.31693848 11.54849609 -3.99536133 11.83105469 C-10.94834433 14.56500946 -17.25361055 15.79542248 -24.6875 16.25 C-26.29794189 16.36166504 -26.29794189 16.36166504 -27.94091797 16.47558594 C-44.36096075 17.51607339 -60.75446537 17.91586519 -77 15 C-77.28875 13.88625 -77.5775 12.7725 -77.875 11.625 C-78.69241329 7.99708908 -78.69241329 7.99708908 -81 6 C-80.00053596 6.1041346 -80.00053596 6.1041346 -78.98088074 6.21037292 C-72.30459107 6.86717137 -65.6948552 7.18574429 -58.98828125 7.23828125 C-57.47043282 7.25038887 -57.47043282 7.25038887 -55.92192078 7.26274109 C-53.79505062 7.27646997 -51.66815947 7.28724129 -49.54125977 7.29516602 C-47.39763787 7.30667431 -45.25404437 7.32710774 -43.1105957 7.35668945 C-28.26762217 7.56073617 -12.96243936 0 0 0 Z " fill="#5C7076" transform="translate(111,39)"/>
<path d="M0 0 C1.67840989 0.26800956 3.34211336 0.62543254 5 1 C8.22703294 1.67703107 11.45751979 2.33719365 14.6875 3 C15.53505859 3.17789063 16.38261719 3.35578125 17.25585938 3.5390625 C42.01872042 8.58579007 66.58399444 5.66982556 91 0 C92.30459914 2.60919828 92.1326594 4.58942615 92.125 7.5 C92.12886719 8.96953125 92.12886719 8.96953125 92.1328125 10.46875 C92 13 92 13 91 15 C76.184368 23.03559702 54.3690954 21.54860516 38 21 C37.05721191 20.9700293 36.11442383 20.94005859 35.14306641 20.90917969 C31.99074247 20.80372442 28.83915356 20.68633755 25.6875 20.5625 C24.1722876 20.50388794 24.1722876 20.50388794 22.62646484 20.4440918 C21.68109863 20.40195557 20.73573242 20.35981934 19.76171875 20.31640625 C18.492677 20.26141968 18.492677 20.26141968 17.19799805 20.20532227 C15 20 15 20 12 19 C12 18.34 12 17.68 12 17 C10.453125 17.0928125 10.453125 17.0928125 8.875 17.1875 C4.76531027 16.98864405 2.51117504 16.05532197 -1 14 C-1.02685938 11.85423363 -1.04633088 9.70837355 -1.0625 7.5625 C-1.07410156 6.36753906 -1.08570312 5.17257813 -1.09765625 3.94140625 C-1 1 -1 1 0 0 Z " fill="#126071" transform="translate(19,77)"/>
<path d="M0 0 C-0.33 0.33 -0.66 0.66 -1 1 C-1.15582303 2.34015221 -1.25044142 3.68758903 -1.31640625 5.03515625 C-1.35830078 5.84404297 -1.40019531 6.65292969 -1.44335938 7.48632812 C-1.48267578 8.33646484 -1.52199219 9.18660156 -1.5625 10.0625 C-1.62727539 11.34350586 -1.62727539 11.34350586 -1.69335938 12.65039062 C-1.79976702 14.76672037 -1.90041731 16.88333813 -2 19 C-7.83055052 21.7190205 -11.54490911 22.29792727 -18 22 C-18 16.39 -18 10.78 -18 5 C-22.455 5.495 -22.455 5.495 -27 6 C-27 11.94 -27 17.88 -27 24 C-30.81666446 25.27222149 -34.41715301 25.16241456 -38.39453125 25.16796875 C-39.63199348 25.17296135 -39.63199348 25.17296135 -40.89445496 25.17805481 C-42.64032433 25.18311668 -44.38620337 25.18546336 -46.13208008 25.18530273 C-48.79199362 25.18748319 -51.45148829 25.20562989 -54.11132812 25.22460938 C-55.80989442 25.22754473 -57.50846268 25.22952857 -59.20703125 25.23046875 C-60.39326836 25.24124702 -60.39326836 25.24124702 -61.60346985 25.25224304 C-62.35412216 25.24916641 -63.10477448 25.24608978 -63.87817383 25.24291992 C-64.53086746 25.24434494 -65.1835611 25.24576996 -65.85603333 25.24723816 C-68 25 -68 25 -74 23 C-74 16.73 -74 10.46 -74 4 C-74.99 3.67 -75.98 3.34 -77 3 C-76.02909424 3.10501831 -76.02909424 3.10501831 -75.03857422 3.2121582 C-66.22858713 4.06306302 -57.47064181 4.18616877 -48.62841797 4.18530273 C-46.13621954 4.18749015 -43.64446447 4.20571852 -41.15234375 4.22460938 C-28.74946017 4.26867659 -16.80206589 3.6777074 -4.98828125 -0.51171875 C-3 -1 -3 -1 0 0 Z " fill="#C5CDCE" transform="translate(109,99)"/>
<path d="M0 0 C1.77925711 0.20843589 3.54949775 0.49465653 5.3125 0.8125 C6.39402344 1.00328125 7.47554687 1.1940625 8.58984375 1.390625 C9.71519531 1.59171875 10.84054688 1.7928125 12 2 C14.12451551 2.35706143 16.24949886 2.71135338 18.375 3.0625 C24 4 24 4 26.67578125 4.546875 C39.95084284 6.35640161 54.00588475 5.18110079 67.3125 4.1875 C68.31837158 4.11748779 69.32424316 4.04747559 70.3605957 3.9753418 C77.1736176 3.40791998 83.46983703 2.01106328 90 0 C90.495 2.475 90.495 2.475 91 5 C76.29362155 11.86964617 62.58848654 12.16826771 46.62963867 12.13037109 C43.93988426 12.12500476 41.25029627 12.13034668 38.56054688 12.13671875 C30.30921139 12.1395829 22.19642843 12.07466179 14 11 C14.33 11.33 14.66 11.66 15 12 C15.23718743 15.6105197 15.39655681 19.21419749 15.51757812 22.83007812 C15.5334342 27.38975533 15.5334342 27.38975533 18 31 C11.24446655 30.72313388 4.07747949 30.07747949 -1 25 C-1.09946453 23.23140807 -1.13080217 21.45888549 -1.1328125 19.6875 C-1.13410156 18.61242187 -1.13539062 17.53734375 -1.13671875 16.4296875 C-1.13091797 14.73199219 -1.13091797 14.73199219 -1.125 13 C-1.12886719 11.86820313 -1.13273437 10.73640625 -1.13671875 9.5703125 C-1.13542969 8.49523437 -1.13414063 7.42015625 -1.1328125 6.3125 C-1.13168457 5.31863281 -1.13055664 4.32476562 -1.12939453 3.30078125 C-1 1 -1 1 0 0 Z " fill="#4D6970" transform="translate(19,50)"/>
<path d="M0 0 C1.02528809 0.08979126 1.02528809 0.08979126 2.07128906 0.18139648 C10.62429479 0.91400469 19.18421778 1.50238201 27.75 2.0625 C29.14063123 2.15420246 30.53125627 2.2459988 31.921875 2.33789062 C35.28118954 2.55951207 38.64058636 2.77988575 42 3 C41.67 9.27 41.34 15.54 41 22 C36.70816029 22.05432708 32.41701977 22.09383388 28.125 22.125 C26.92101562 22.14175781 25.71703125 22.15851563 24.4765625 22.17578125 C17.4722355 22.21384824 10.7587911 22.00568002 4 20 C1.71292957 17.71292957 2.59148785 11.42860028 2.48242188 8.16992188 C2.4665658 3.61024467 2.4665658 3.61024467 0 0 Z " fill="#EAEAEA" transform="translate(31,60)"/>
<path d="M0 0 C0.7989267 -0.0033284 1.59785339 -0.0066568 2.42098999 -0.01008606 C4.10340811 -0.01511833 5.78583608 -0.01749554 7.46826172 -0.01733398 C9.99594295 -0.01950761 12.52317769 -0.03766758 15.05078125 -0.05664062 C28.91533211 -0.10581656 42.45436745 0.60809973 55.3984375 6.16796875 C58.00712119 8.77665244 57.65572663 9.91329239 57.6640625 13.54296875 C57.66792969 15.14398437 57.66792969 15.14398437 57.671875 16.77734375 C57.66414063 17.89625 57.65640625 19.01515625 57.6484375 20.16796875 C57.66003906 21.84632812 57.66003906 21.84632812 57.671875 23.55859375 C57.66929688 24.6259375 57.66671875 25.69328125 57.6640625 26.79296875 C57.66180664 27.77523438 57.65955078 28.7575 57.65722656 29.76953125 C57.3984375 32.16796875 57.3984375 32.16796875 55.3984375 34.16796875 C53.9134375 33.67296875 53.9134375 33.67296875 52.3984375 33.16796875 C52.7284375 26.89796875 53.0584375 20.62796875 53.3984375 14.16796875 C51.4184375 14.49796875 49.4384375 14.82796875 47.3984375 15.16796875 C47.2746875 14.38421875 47.1509375 13.60046875 47.0234375 12.79296875 C46.60725757 10.02739053 46.60725757 10.02739053 44.3984375 8.16796875 C44.7284375 7.50796875 45.0584375 6.84796875 45.3984375 6.16796875 C43.2750978 5.68149755 41.14965137 5.20422003 39.0234375 4.73046875 C37.84007813 4.46363281 36.65671875 4.19679688 35.4375 3.921875 C20.20171206 0.84978787 4.07869655 1.37495677 -11.2265625 3.54296875 C-12.12093018 3.66897461 -13.01529785 3.79498047 -13.93676758 3.92480469 C-17.89218352 4.54035598 -20.20241992 4.9018737 -23.6015625 7.16796875 C-23.2715625 7.82796875 -22.9415625 8.48796875 -22.6015625 9.16796875 C-23.5915625 9.16796875 -24.5815625 9.16796875 -25.6015625 9.16796875 C-25.2715625 11.14796875 -24.9415625 13.12796875 -24.6015625 15.16796875 C-27.2415625 14.83796875 -29.8815625 14.50796875 -32.6015625 14.16796875 C-31.3846875 14.62171875 -30.1678125 15.07546875 -28.9140625 15.54296875 C-25.78902251 16.7082379 -22.70023228 17.92850084 -19.6015625 19.16796875 C-19.6015625 25.10796875 -19.6015625 31.04796875 -19.6015625 37.16796875 C-31.3515625 35.29296875 -31.3515625 35.29296875 -33.6015625 34.16796875 C-33.6015625 33.50796875 -33.6015625 32.84796875 -33.6015625 32.16796875 C-34.2615625 32.16796875 -34.9215625 32.16796875 -35.6015625 32.16796875 C-35.77583006 28.25186391 -35.88240405 24.33675378 -35.9765625 20.41796875 C-36.02683594 19.30679687 -36.07710937 18.195625 -36.12890625 17.05078125 C-36.184295 13.98593725 -36.15266128 11.18413292 -35.6015625 8.16796875 C-32.00618057 4.52443438 -28.16377263 3.51453334 -23.2265625 2.48046875 C-22.16695312 2.24972656 -21.10734375 2.01898438 -20.015625 1.78125 C-13.29712024 0.57437901 -6.81100495 0.01016019 0 0 Z " fill="#687476" transform="translate(53.6015625,0.83203125)"/>
<path d="M0 0 C0.0270043 1.45823212 0.04639787 2.91660675 0.0625 4.375 C0.07410156 5.18710937 0.08570312 5.99921875 0.09765625 6.8359375 C0 9 0 9 -1 11 C-21.05469946 21.87712513 -55.2142757 18.91025821 -77 15 C-77.28875 13.88625 -77.5775 12.7725 -77.875 11.625 C-78.69241329 7.99708908 -78.69241329 7.99708908 -81 6 C-80.00053596 6.1041346 -80.00053596 6.1041346 -78.98088074 6.21037292 C-72.30459107 6.86717137 -65.6948552 7.18574429 -58.98828125 7.23828125 C-57.47043282 7.25038887 -57.47043282 7.25038887 -55.92192078 7.26274109 C-53.79505062 7.27646997 -51.66815947 7.28724129 -49.54125977 7.29516602 C-47.39763787 7.30667431 -45.25404437 7.32710774 -43.1105957 7.35668945 C-28.26762217 7.56073617 -12.96243936 0 0 0 Z " fill="#018DAA" transform="translate(111,39)"/>
<path d="M0 0 C1.69189453 0.09087891 1.69189453 0.09087891 3.41796875 0.18359375 C15.60995037 0.83409454 27.80402199 1.42964083 40 2 C40 2.33 40 2.66 40 3 C38.35 3 36.7 3 35 3 C35 8.94 35 14.88 35 21 C30.62483422 21.05401439 26.25033747 21.09368368 21.875 21.125 C20.01875 21.15013672 20.01875 21.15013672 18.125 21.17578125 C16.92617188 21.18222656 15.72734375 21.18867187 14.4921875 21.1953125 C13.39245605 21.20578613 12.29272461 21.21625977 11.15966797 21.22705078 C8 21 8 21 2 19 C2 13.06 2 7.12 2 1 C1.34 0.67 0.68 0.34 0 0 Z " fill="#EBEBEB" transform="translate(35,19)"/>
<path d="M0 0 C0.41640144 4.24729473 0.50584625 6.31020966 -2.0625 9.8125 C-8.47151841 14.58517329 -16.21254762 14.55964621 -23.9375 15.125 C-25.0505249 15.20919189 -26.1635498 15.29338379 -27.31030273 15.38012695 C-61.5481584 17.8287005 -61.5481584 17.8287005 -77 13 C-77.185625 11.576875 -77.185625 11.576875 -77.375 10.125 C-77.71687177 6.91332809 -77.71687177 6.91332809 -80 5 C-79.3306543 5.0702388 -78.66130859 5.1404776 -77.97167969 5.21284485 C-71.38026228 5.86416259 -64.87128129 6.15991517 -58.25 6.16796875 C-57.27063477 6.17129715 -56.29126953 6.17462555 -55.28222656 6.17805481 C-53.22852035 6.18307737 -51.1748061 6.1854646 -49.12109375 6.18530273 C-46.00767446 6.1874946 -42.89460714 6.20571526 -39.78125 6.22460938 C-37.77083453 6.22754337 -35.7604174 6.22952812 -33.75 6.23046875 C-32.83508789 6.23765427 -31.92017578 6.24483978 -30.97753906 6.25224304 C-22.33827838 6.22219643 -13.94992277 5.0531766 -5.875 1.875 C-1.04379562 0 -1.04379562 0 0 0 Z " fill="#16A2BE" transform="translate(110,82)"/>
<path d="M0 0 C0.33 4.95 0.66 9.9 1 15 C14.51688232 20.16099143 28.48766128 21.49441591 42.83935547 21.33618164 C45.13154115 21.31243223 47.42256436 21.31567721 49.71484375 21.32226562 C71.30460118 21.44999865 71.30460118 21.44999865 91 14 C91.58592634 10.88389446 91.58592634 10.88389446 91.6875 7.375 C91.75324219 6.18648438 91.81898437 4.99796875 91.88671875 3.7734375 C91.92410156 2.85820313 91.96148437 1.94296875 92 1 C95.90711509 1.49855005 97.74170629 1.80215801 100.9375 4.25 C103 7 103 7 103.0625 9.5625 C101.37594415 13.43165753 99.03315447 15.47524672 95.28515625 17.37890625 C67.09675248 27.73173818 26.73805822 28.61809593 -1.6015625 18.18359375 C-5.36330917 16.32722691 -8.04140803 13.95859197 -11 11 C-10.77581061 7.07668566 -10.04047908 6.03871912 -7.125 3.25 C-2.61111111 0 -2.61111111 0 0 0 Z " fill="#010202" transform="translate(18,103)"/>
<path d="M0 0 C23.43 0 46.86 0 71 0 C66.49006375 4.50993625 61.48648843 5.07160524 55.328125 5.22705078 C53.63538363 5.22673903 51.94261819 5.21573502 50.25 5.1953125 C49.35128174 5.1924826 48.45256348 5.18965271 47.52661133 5.18673706 C44.68426635 5.17563125 41.84224814 5.15054505 39 5.125 C37.0612025 5.11495777 35.12240001 5.10583411 33.18359375 5.09765625 C28.45560518 5.07572345 23.7278578 5.04126084 19 5 C19 5.66 19 6.32 19 7 C15.37 7 11.74 7 8 7 C8 12.94 8 18.88 8 25 C8.99 25.33 9.98 25.66 11 26 C9.02 25.67 7.04 25.34 5 25 C4.67 19.06 4.34 13.12 4 7 C1.6178125 6.3503125 1.6178125 6.3503125 -0.8125 5.6875 C-4.78878538 4.60305853 -5.95664473 4.04335527 -9 1 C-4.545 1.99 -4.545 1.99 0 3 C0 2.01 0 1.02 0 0 Z " fill="#979FA0" transform="translate(29,13)"/>
<path d="M0 0 C9.06545775 -0.11191923 17.96719726 0.30896591 27 1 C26.01 1.33 25.02 1.66 24 2 C24 7.61 24 13.22 24 19 C20.54161528 19.02687864 17.08343775 19.04677983 13.625 19.0625 C12.64015625 19.07087891 11.6553125 19.07925781 10.640625 19.08789062 C9.22910156 19.09272461 9.22910156 19.09272461 7.7890625 19.09765625 C6.48509521 19.10551147 6.48509521 19.10551147 5.15478516 19.11352539 C3 19 3 19 1 18 C0.67 12.06 0.34 6.12 0 0 Z " fill="#EBEBEB" transform="translate(43,104)"/>
<path d="M0 0 C-0.66 0.66 -1.32 1.32 -2 2 C-2.36831081 3.93257855 -2.36831081 3.93257855 -2.4140625 6.1328125 C-2.45273438 6.93847656 -2.49140625 7.74414062 -2.53125 8.57421875 C-2.57765625 9.83685547 -2.57765625 9.83685547 -2.625 11.125 C-2.66367188 11.97449219 -2.70234375 12.82398438 -2.7421875 13.69921875 C-2.83656494 15.79911684 -2.91937586 17.89952891 -3 20 C-6.96 20.495 -6.96 20.495 -11 21 C-11 15.39 -11 9.78 -11 4 C-13.1965625 4.185625 -13.1965625 4.185625 -15.4375 4.375 C-16.26121094 4.44460937 -17.08492187 4.51421875 -17.93359375 4.5859375 C-18.61550781 4.72257812 -19.29742187 4.85921875 -20 5 C-21.76515437 8.53030873 -21.41070388 12.7716168 -21.60546875 16.67773438 C-21.89920831 21.89920831 -21.89920831 21.89920831 -23 23 C-27.64006291 23.82299816 -32.10224792 24.11934448 -36.80859375 24.09765625 C-38.04931641 24.09443359 -39.29003906 24.09121094 -40.56835938 24.08789062 C-41.84517578 24.07951172 -43.12199219 24.07113281 -44.4375 24.0625 C-46.39333008 24.05573242 -46.39333008 24.05573242 -48.38867188 24.04882812 C-51.59249552 24.03709251 -54.79622363 24.02067363 -58 24 C-58 23.67 -58 23.34 -58 23 C-49.42 23 -40.84 23 -32 23 C-32 17.06 -32 11.12 -32 5 C-37.28 4.67 -42.56 4.34 -48 4 C-48 3.67 -48 3.34 -48 3 C-47.12375977 2.98018066 -46.24751953 2.96036133 -45.34472656 2.93994141 C-42.03443082 2.86095861 -38.72451173 2.7742476 -35.41455078 2.68261719 C-33.99307816 2.64477966 -32.57152439 2.60985616 -31.14990234 2.578125 C-23.16181931 2.39773075 -15.40791591 1.97281852 -7.54199219 0.41552734 C-4.98089897 -0.00312236 -2.59004055 -0.07171882 0 0 Z " fill="#B1BABC" transform="translate(102,17)"/>
<path d="M0 0 C-0.33 6.27 -0.66 12.54 -1 19 C-7 21 -7 21 -12 21 C-12 15.39 -12 9.78 -12 4 C-15.3 4.33 -18.6 4.66 -22 5 C-22.09087891 6.82337891 -22.09087891 6.82337891 -22.18359375 8.68359375 C-22.26798332 10.26824228 -22.3526321 11.85287702 -22.4375 13.4375 C-22.47681641 14.23994141 -22.51613281 15.04238281 -22.55664062 15.86914062 C-22.88671875 21.88671875 -22.88671875 21.88671875 -24 23 C-26.31 23 -28.62 23 -31 23 C-31 17.06 -31 11.12 -31 5 C-36.94 4.67 -42.88 4.34 -49 4 C-49 3.67 -49 3.34 -49 3 C-47.76866333 2.96241577 -47.76866333 2.96241577 -46.51245117 2.92407227 C-43.41291561 2.82788655 -40.31349195 2.72873189 -37.21411133 2.62768555 C-35.23460818 2.56401523 -33.25499969 2.50364702 -31.27539062 2.44335938 C-20.83053561 2.09960465 -10.25420633 0 0 0 Z " fill="#9BA9AC" transform="translate(103,59)"/>
<path d="M0 0 C24.09 0 48.18 0 73 0 C73.495 1.98 73.495 1.98 74 4 C76.97 3.505 76.97 3.505 80 3 C79.67 9.6 79.34 16.2 79 23 C72 26 72 26 71 26 C70.97316013 23.02077407 70.95323963 20.04178705 70.9375 17.0625 C70.92912109 16.21236328 70.92074219 15.36222656 70.91210938 14.48632812 C70.90888672 13.67744141 70.90566406 12.86855469 70.90234375 12.03515625 C70.89710693 11.2862915 70.89187012 10.53742676 70.88647461 9.76586914 C71 8 71 8 72 7 C71.14269287 7.1429248 70.28538574 7.28584961 69.40209961 7.43310547 C58.73932539 9.04985399 48.33081769 9.23656697 37.5625 9.125 C35.8483126 9.1149366 34.13411939 9.10581676 32.41992188 9.09765625 C28.27980055 9.07593996 24.13996728 9.04160128 20 9 C20 8.34 20 7.68 20 7 C21.78446533 6.97812622 21.78446533 6.97812622 23.60498047 6.95581055 C28.05953583 6.8974143 32.51360734 6.82018712 36.96777344 6.73754883 C38.88794037 6.70449254 40.80819997 6.67640188 42.72851562 6.65356445 C45.50430439 6.61966059 48.27925852 6.56733091 51.0546875 6.51171875 C51.8998996 6.50532883 52.74511169 6.4989389 53.61593628 6.49235535 C60.20912981 6.33321935 64.28815278 5.01355417 71 3 C47.57 3 24.14 3 0 3 C0 2.01 0 1.02 0 0 Z " fill="#869093" transform="translate(28,11)"/>
<path d="M0 0 C-0.33 0.33 -0.66 0.66 -1 1 C-1.15582303 2.34015221 -1.25044142 3.68758903 -1.31640625 5.03515625 C-1.35830078 5.84404297 -1.40019531 6.65292969 -1.44335938 7.48632812 C-1.48267578 8.33646484 -1.52199219 9.18660156 -1.5625 10.0625 C-1.60568359 10.91650391 -1.64886719 11.77050781 -1.69335938 12.65039062 C-1.79976702 14.76672037 -1.90041731 16.88333813 -2 19 C-7.83055052 21.7190205 -11.54490911 22.29792727 -18 22 C-18 16.39 -18 10.78 -18 5 C-20.31 5.33 -22.62 5.66 -25 6 C-25.66 5.34 -26.32 4.68 -27 4 C-26.10539062 3.89042969 -25.21078125 3.78085938 -24.2890625 3.66796875 C-17.61071644 2.7922368 -11.34603914 1.74288111 -4.98828125 -0.51171875 C-3 -1 -3 -1 0 0 Z " fill="#8FA0A4" transform="translate(109,99)"/>
<path d="M0 0 C0.90492187 0.30744141 0.90492187 0.30744141 1.828125 0.62109375 C3.02695312 1.02521484 3.02695312 1.02521484 4.25 1.4375 C5.03890625 1.70433594 5.8278125 1.97117187 6.640625 2.24609375 C8.74821988 2.91954708 10.84753973 3.49150595 13 4 C13 4.66 13 5.32 13 6 C13.99 6 14.98 6 16 6 C16 12.27 16 18.54 16 25 C17.98 25.33 19.96 25.66 22 26 C17.95892396 27.61643042 14.38355459 26.35580816 10.375 25.25 C9.694375 25.07984375 9.01375 24.9096875 8.3125 24.734375 C4.52171829 23.71550877 3.24832586 23.3724888 1 20 C0.68115234 17.82348633 0.68115234 17.82348633 0.5859375 15.33203125 C0.54726563 14.43935547 0.50859375 13.54667969 0.46875 12.62695312 C0.4378125 11.69818359 0.406875 10.76941406 0.375 9.8125 C0.33632813 8.87212891 0.29765625 7.93175781 0.2578125 6.96289062 C0.16356813 4.6421229 0.07795975 2.32136252 0 0 Z " fill="#7F8B8E" transform="translate(19,97)"/>
<path d="M0 0 C0.66644531 0.06058594 1.33289063 0.12117188 2.01953125 0.18359375 C2.94121094 0.26738281 3.86289062 0.35117188 4.8125 0.4375 C5.70582031 0.51871094 6.59914063 0.59992188 7.51953125 0.68359375 C8.66808594 0.78800781 9.81664062 0.89242187 11 1 C12.19435669 1.11807007 12.19435669 1.11807007 13.4128418 1.23852539 C20.3336143 1.90574542 27.24082422 2.29069293 34.1875 2.5625 C35.75854492 2.62727539 35.75854492 2.62727539 37.36132812 2.69335938 C39.90746397 2.79799509 42.45367178 2.90017546 45 3 C44.01 3.33 43.02 3.66 42 4 C42 5.98 42 7.96 42 10 C37.73162357 10.04982839 33.463406 10.08592015 29.19482422 10.10986328 C27.74590094 10.11985586 26.29699749 10.13345453 24.84814453 10.15087891 C10.02843217 10.32450751 10.02843217 10.32450751 3 8 C2.814375 6.576875 2.814375 6.576875 2.625 5.125 C2.28312823 1.91332809 2.28312823 1.91332809 0 0 Z " fill="#96EDFE" transform="translate(30,87)"/>
<path d="M0 0 C0.66644531 0.06058594 1.33289063 0.12117188 2.01953125 0.18359375 C2.94121094 0.26738281 3.86289062 0.35117187 4.8125 0.4375 C5.70582031 0.51871094 6.59914063 0.59992187 7.51953125 0.68359375 C8.66808594 0.78800781 9.81664062 0.89242187 11 1 C12.19435669 1.11807007 12.19435669 1.11807007 13.4128418 1.23852539 C20.3336143 1.90574542 27.24082422 2.29069293 34.1875 2.5625 C35.75854492 2.62727539 35.75854492 2.62727539 37.36132812 2.69335938 C39.90746397 2.79799509 42.45367178 2.90017546 45 3 C44.01 3.33 43.02 3.66 42 4 C42 5.98 42 7.96 42 10 C38.0347593 10.02497729 34.06954995 10.0429894 30.10424805 10.05493164 C28.10268542 10.06235104 26.10114467 10.07506659 24.09960938 10.08789062 C17.30874075 10.10499609 10.72834499 9.93798004 4 9 C3.71125 7.88625 3.4225 6.7725 3.125 5.625 C2.30758671 1.99708908 2.30758671 1.99708908 0 0 Z " fill="#98EDFE" transform="translate(30,45)"/>
<path d="M0 0 C1.58624235 0.42683239 3.1689098 0.86696158 4.75 1.3125 C6.07257812 1.67794922 6.07257812 1.67794922 7.421875 2.05078125 C12.03508772 3.7492823 12.03508772 3.7492823 14 6 C14.63862393 9.05356563 14.69704923 12.07543882 14.75 15.1875 C14.77964844 16.03248047 14.80929688 16.87746094 14.83984375 17.74804688 C14.9104699 19.83151822 14.95750795 21.91576506 15 24 C13.43536936 23.74175999 11.8733355 23.46776681 10.3125 23.1875 C9.44238281 23.03667969 8.57226562 22.88585937 7.67578125 22.73046875 C2.49403531 21.31588993 2.49403531 21.31588993 0 19 C-0.62800874 15.75587512 -0.46886385 12.60095204 -0.3125 9.3125 C-0.28994141 8.41982422 -0.26738281 7.52714844 -0.24414062 6.60742188 C-0.18520574 4.40325728 -0.10300818 2.20247328 0 0 Z " fill="#7E8A8D" transform="translate(20,56)"/>
<path d="M0 0 C1.98019743 0.47488898 3.95913635 0.95502859 5.9375 1.4375 C7.03964844 1.70433594 8.14179688 1.97117187 9.27734375 2.24609375 C12 3 12 3 13 4 C13.08631874 5.34267413 13.10706473 6.68974322 13.09765625 8.03515625 C13.09443359 8.84404297 13.09121094 9.65292969 13.08789062 10.48632812 C13.07951172 11.33646484 13.07113281 12.18660156 13.0625 13.0625 C13.05798828 13.91650391 13.05347656 14.77050781 13.04882812 15.65039062 C13.03700373 17.76695663 13.01906769 19.88348685 13 22 C11.39431334 21.71682074 9.79047953 21.42312209 8.1875 21.125 C7.29417969 20.96257813 6.40085937 20.80015625 5.48046875 20.6328125 C3 20 3 20 0 18 C-0.34057617 16.12060547 -0.34057617 16.12060547 -0.29296875 13.8671875 C-0.28330078 13.06152344 -0.27363281 12.25585938 -0.26367188 11.42578125 C-0.23853516 10.58402344 -0.21339844 9.74226563 -0.1875 8.875 C-0.17396484 8.02550781 -0.16042969 7.17601562 -0.14648438 6.30078125 C-0.11108219 4.20025163 -0.05727401 2.10004707 0 0 Z " fill="#7F8B8E" transform="translate(21,16)"/>
<path d="M0 0 C0 5.61 0 11.22 0 17 C2.31 17 4.62 17 7 17 C1.60619456 22.39380544 -11.98026483 21.17056807 -19.33984375 21.1953125 C-22.53934378 21.18965627 -25.73819683 21.15914136 -28.9375 21.125 C-30.60351016 21.11493544 -32.2695263 21.10581582 -33.93554688 21.09765625 C-37.95718329 21.07595177 -41.97852244 21.04162026 -46 21 C-46 20.67 -46 20.34 -46 20 C-33.79 19.67 -21.58 19.34 -9 19 C-9 13.06 -9 7.12 -9 1 C-5 0 -5 0 0 0 Z " fill="#636D70" transform="translate(91,104)"/>
<path d="M0 0 C3.03866799 -0.41137202 5.92159703 -0.13193156 9 0 C9 5.61 9 11.22 9 17 C10.65 17 12.3 17 14 17 C14 17.33 14 17.66 14 18 C5.585 18.495 5.585 18.495 -3 19 C-2.87625 16.421875 -2.7525 13.84375 -2.625 11.1875 C-2.59100098 10.37949951 -2.55700195 9.57149902 -2.52197266 8.73901367 C-2.31632735 5.03041921 -2.09844363 3.14766544 0 0 Z " fill="#6D7D81" transform="translate(82,21)"/>
<path d="M0 0 C1.97986082 0.11347619 3.95891598 0.2410935 5.9375 0.375 C7.03964844 0.44460937 8.14179687 0.51421875 9.27734375 0.5859375 C10.62505859 0.79089844 10.62505859 0.79089844 12 1 C13.1482685 3.296537 13.11561175 4.58313167 13.09765625 7.1328125 C13.09443359 7.93847656 13.09121094 8.74414062 13.08789062 9.57421875 C13.07951172 10.41597656 13.07113281 11.25773437 13.0625 12.125 C13.05798828 12.97449219 13.05347656 13.82398437 13.04882812 14.69921875 C13.03702874 16.79950909 13.01909306 18.8997633 13 21 C6.375 21.25 6.375 21.25 3 19 C2.66826333 16.1112488 2.48740033 13.39421918 2.4375 10.5 C2.67530217 4.73517778 2.67530217 4.73517778 0 0 Z " fill="#D2D7D8" transform="translate(31,60)"/>
<path d="M0 0 C2.57161458 0.03255208 5.14322917 0.06510417 7.71484375 0.09765625 C7.71484375 5.70765625 7.71484375 11.31765625 7.71484375 17.09765625 C3.75484375 17.75765625 -0.20515625 18.41765625 -4.28515625 19.09765625 C-4.14497799 16.11812266 -3.99829283 13.13916321 -3.84765625 10.16015625 C-3.80833984 9.31001953 -3.76902344 8.45988281 -3.72851562 7.58398438 C-3.68662109 6.77509766 -3.64472656 5.96621094 -3.6015625 5.1328125 C-3.56490479 4.38394775 -3.52824707 3.63508301 -3.49047852 2.86352539 C-3.17473571 0.1479871 -2.74249289 0.11720055 0 0 Z " fill="#6A7B7E" transform="translate(83.28515625,62.90234375)"/>
<path d="M0 0 C0 5.94 0 11.88 0 18 C-3 19 -3 19 -11 19 C-10.505 10.09 -10.505 10.09 -10 1 C-8 0 -8 0 0 0 Z " fill="#A9B6B8" transform="translate(82,105)"/>
<path d="M0 0 C10.56 0 21.12 0 32 0 C32 0.33 32 0.66 32 1 C30.35 1.33 28.7 1.66 27 2 C26.90912109 3.82337891 26.90912109 3.82337891 26.81640625 5.68359375 C26.73201668 7.26824228 26.6473679 8.85287702 26.5625 10.4375 C26.52318359 11.23994141 26.48386719 12.04238281 26.44335938 12.86914062 C26.11328125 18.88671875 26.11328125 18.88671875 25 20 C22.69 20 20.38 20 18 20 C18 14.06 18 8.12 18 2 C12.06 1.67 6.12 1.34 0 1 C0 0.67 0 0.34 0 0 Z " fill="#ADB9BB" transform="translate(54,62)"/>
<path d="M0 0 C1.75920776 0.00580078 1.75920776 0.00580078 3.55395508 0.01171875 C12.41680836 0.09964509 21.01295554 0.75145639 29.75 2.25 C29.42 2.91 29.09 3.57 28.75 4.25 C11.26 4.25 -6.23 4.25 -24.25 4.25 C-24.58 3.59 -24.91 2.93 -25.25 2.25 C-16.76921741 0.56611779 -8.6379848 -0.06939633 0 0 Z " fill="#5E696B" transform="translate(62.25,4.75)"/>
<path d="M0 0 C0 0.33 0 0.66 0 1 C-2.64 1.66 -5.28 2.32 -8 3 C-7.67 3.99 -7.34 4.98 -7 6 C-7.99 6 -8.98 6 -10 6 C-9.67 7.98 -9.34 9.96 -9 12 C-11.64 11.67 -14.28 11.34 -17 11 C-17 17.27 -17 23.54 -17 30 C-16.01 30.33 -15.02 30.66 -14 31 C-14.99 31.495 -14.99 31.495 -16 32 C-16.66 31.67 -17.32 31.34 -18 31 C-18 30.34 -18 29.68 -18 29 C-18.66 29 -19.32 29 -20 29 C-20.17426756 25.08389516 -20.28084155 21.16878503 -20.375 17.25 C-20.42527344 16.13882812 -20.47554687 15.02765625 -20.52734375 13.8828125 C-20.58278852 10.81486882 -20.56191634 8.0175823 -20 5 C-14.52867077 -0.29408898 -7.31029347 -1.82757337 0 0 Z " fill="#687477" transform="translate(38,4)"/>
<path d="M0 0 C-0.66 0.66 -1.32 1.32 -2 2 C-2.36831081 3.93257855 -2.36831081 3.93257855 -2.4140625 6.1328125 C-2.47207031 7.34130859 -2.47207031 7.34130859 -2.53125 8.57421875 C-2.57765625 9.83685547 -2.57765625 9.83685547 -2.625 11.125 C-2.68300781 12.39923828 -2.68300781 12.39923828 -2.7421875 13.69921875 C-2.83656494 15.79911684 -2.91937586 17.89952891 -3 20 C-6.96 20.495 -6.96 20.495 -11 21 C-11 15.39 -11 9.78 -11 4 C-13.31 4 -15.62 4 -18 4 C-17.67 3.34 -17.34 2.68 -17 2 C-14.453125 1.3671875 -14.453125 1.3671875 -11.25 0.875 C-10.20328125 0.70742188 -9.1565625 0.53984375 -8.078125 0.3671875 C-5.3438423 0.04101672 -2.74892942 -0.07126854 0 0 Z " fill="#97A6A9" transform="translate(102,17)"/>
<path d="M0 0 C1.216875 0.639375 2.43375 1.27875 3.6875 1.9375 C6.19520971 3.20688934 8.09550327 4.01868542 10.875 4.5625 C13 5 13 5 15 8 C15.125 11.1875 15.125 11.1875 15 14 C17.64 14.33 20.28 14.66 23 15 C23 15.33 23 15.66 23 16 C16.375 16.125 16.375 16.125 13 15 C13 14.34 13 13.68 13 13 C11.453125 13.0928125 11.453125 13.0928125 9.875 13.1875 C5.76531027 12.98864405 3.51117504 12.05532197 0 10 C0 6.7 0 3.4 0 0 Z " fill="#1992AA" transform="translate(18,81)"/>
<path d="M0 0 C2.31 0.33 4.62 0.66 7 1 C7 6.94 7 12.88 7 19 C9.31 19 11.62 19 14 19 C14 19.33 14 19.66 14 20 C8.31379141 20.19607616 5.6882672 19.89608907 0 18 C0 12.06 0 6.12 0 0 Z " fill="#C5CCCD" transform="translate(37,20)"/>
<path d="M0 0 C0.66 0 1.32 0 2 0 C2.3125 2.1875 2.3125 2.1875 2 5 C-1.36257974 9.3815433 -4.70923722 11.00214104 -10 12 C-13.64248463 12.35888103 -17.28021789 12.50500715 -20.9375 12.625 C-22.3925293 12.68300781 -22.3925293 12.68300781 -23.87695312 12.7421875 C-26.25112076 12.83575076 -28.62529492 12.92149208 -31 13 C-31 11.02 -31 9.04 -31 7 C-27.84493858 6.06380187 -25.03413498 5.8942877 -21.75 5.9375 C-20.85796875 5.94652344 -19.9659375 5.95554687 -19.046875 5.96484375 C-18.37140625 5.97644531 -17.6959375 5.98804687 -17 6 C-17 7.65 -17 9.3 -17 11 C-9.575 9.515 -9.575 9.515 -2 8 C-1.67 5.69 -1.34 3.38 -1 1 C-0.67 0.67 -0.34 0.34 0 0 Z " fill="#018DAA" transform="translate(108,84)"/>
<path d="M0 0 C0.51949219 0.27714844 1.03898437 0.55429687 1.57421875 0.83984375 C6.0492834 3.17262437 6.0492834 3.17262437 10.875 4.5625 C13 5 13 5 15 8 C15.125 11.1875 15.125 11.1875 15 14 C12.6865641 13.5253725 10.37426981 13.04517721 8.0625 12.5625 C6.77472656 12.29566406 5.48695312 12.02882813 4.16015625 11.75390625 C1 11 1 11 0 10 C-0.07205511 8.31391034 -0.08386068 6.62499341 -0.0625 4.9375 C-0.05347656 4.01839844 -0.04445313 3.09929688 -0.03515625 2.15234375 C-0.02355469 1.44207031 -0.01195313 0.73179688 0 0 Z " fill="#1D96AE" transform="translate(18,39)"/>
<path d="M0 0 C-4.70227156 4.70227156 -10.54434918 4.40063666 -16.8125 4.625 C-17.69615234 4.66367187 -18.57980469 4.70234375 -19.49023438 4.7421875 C-21.65982972 4.83600784 -23.82988547 4.91907326 -26 5 C-26 6.98 -26 8.96 -26 11 C-29.27626375 11.9821994 -32.22788119 12.11580914 -35.640625 12.09765625 C-36.71054688 12.09443359 -37.78046875 12.09121094 -38.8828125 12.08789062 C-39.99398437 12.07951172 -41.10515625 12.07113281 -42.25 12.0625 C-43.93996094 12.05573242 -43.93996094 12.05573242 -45.6640625 12.04882812 C-48.44276217 12.03705397 -51.22135409 12.0206084 -54 12 C-54 11.67 -54 11.34 -54 11 C-46.41 11 -38.82 11 -31 11 C-31 9.02 -31 7.04 -31 5 C-37.6 4.67 -44.2 4.34 -51 4 C-51 3.67 -51 3.34 -51 3 C-49.9262915 2.98018066 -48.85258301 2.96036133 -47.74633789 2.93994141 C-43.72609771 2.86331556 -39.70619288 2.77469068 -35.6862793 2.68261719 C-33.95327421 2.64456106 -32.22019639 2.60966942 -30.48706055 2.578125 C-27.98199638 2.531962 -25.47742293 2.47405822 -22.97265625 2.4140625 C-22.20977798 2.40251129 -21.44689972 2.39096008 -20.66090393 2.37905884 C-15.91329752 2.25159634 -11.56062002 1.59191581 -6.95237732 0.43515015 C-4.60260715 -0.08857179 -2.39855261 -0.15474533 0 0 Z " fill="#50B3C9" transform="translate(103,44)"/>
<path d="M0 0 C1.65 0 3.3 0 5 0 C5 5.61 5 11.22 5 17 C7.31 17 9.62 17 12 17 C12 17.33 12 17.66 12 18 C7.71 18 3.42 18 -1 18 C-1.02690844 15.37493198 -1.04679404 12.75013827 -1.0625 10.125 C-1.07087891 9.37863281 -1.07925781 8.63226563 -1.08789062 7.86328125 C-1.11328125 2.2265625 -1.11328125 2.2265625 0 0 Z " fill="#6D7F82" transform="translate(86,104)"/>
<path d="M0 0 C1.65 0 3.3 0 5 0 C6 1 6 1 6.11352539 2.76586914 C6.10828857 3.51473389 6.10305176 4.26359863 6.09765625 5.03515625 C6.09443359 5.84404297 6.09121094 6.65292969 6.08789062 7.48632812 C6.07951172 8.33646484 6.07113281 9.18660156 6.0625 10.0625 C6.05798828 10.91650391 6.05347656 11.77050781 6.04882812 12.65039062 C6.03700373 14.76695663 6.01906769 16.88348685 6 19 C3.36 18.67 0.72 18.34 -2 18 C-1.34 17.67 -0.68 17.34 0 17 C0 11.39 0 5.78 0 0 Z " fill="#69787B" transform="translate(28,19)"/>
<path d="M0 0 C1.35774536 -0.0009668 1.35774536 -0.0009668 2.74291992 -0.00195312 C10.22217352 0.05641118 17.39017734 0.80212162 24.75 2.1875 C24.75 2.5175 24.75 2.8475 24.75 3.1875 C8.58 3.1875 -7.59 3.1875 -24.25 3.1875 C-16.80800252 -0.53349874 -8.20168826 -0.00613268 0 0 Z " fill="#9AA4A6" transform="translate(64.25,1.8125)"/>
<path d="M0 0 C2.02910711 0.25327449 4.04962145 0.57730068 6.0625 0.9375 C7.16722656 1.13214844 8.27195312 1.32679687 9.41015625 1.52734375 C10.69212891 1.76130859 10.69212891 1.76130859 12 2 C12 2.66 12 3.32 12 4 C11.01 4.495 11.01 4.495 10 5 C10.66 5.66 11.32 6.32 12 7 C11.67 7.33 11.34 7.66 11 8 C7.50265772 7.61140641 4.34211739 7.11403913 1 6 C1.33 12.6 1.66 19.2 2 26 C1.34 26 0.68 26 0 26 C-1.27137774 23.45724451 -1.129425 21.65191799 -1.1328125 18.80859375 C-1.13410156 17.78185547 -1.13539062 16.75511719 -1.13671875 15.69726562 C-1.13285156 14.62154297 -1.12898438 13.54582031 -1.125 12.4375 C-1.12886719 11.35791016 -1.13273437 10.27832031 -1.13671875 9.16601562 C-1.13542969 8.14056641 -1.13414063 7.11511719 -1.1328125 6.05859375 C-1.13168457 5.11298584 -1.13055664 4.16737793 -1.12939453 3.19311523 C-1 1 -1 1 0 0 Z " fill="#46595D" transform="translate(19,92)"/>
<path d="M0 0 C-7.3197277 1.86094772 -14.46783285 2.55761615 -22 3 C-22 4.98 -22 6.96 -22 9 C-26.09003859 10.14982602 -30.03177051 10.11094256 -34.25 10.0625 C-34.99507812 10.05798828 -35.74015625 10.05347656 -36.5078125 10.04882812 C-38.3385764 10.03709246 -40.16929873 10.0191585 -42 10 C-42 9.67 -42 9.34 -42 9 C-37.05 9 -32.1 9 -27 9 C-27 7.02 -27 5.04 -27 3 C-33.6 2.67 -40.2 2.34 -47 2 C-47 1.67 -47 1.34 -47 1 C-45.47246094 0.96241577 -45.47246094 0.96241577 -43.9140625 0.92407227 C-40.10454587 0.82928342 -36.29518154 0.72924282 -32.48583984 0.62768555 C-30.84297266 0.58460506 -29.20006841 0.54291343 -27.55712891 0.50268555 C-25.18380603 0.44432515 -22.81066521 0.38082725 -20.4375 0.31640625 C-19.71320801 0.29969376 -18.98891602 0.28298126 -18.24267578 0.26576233 C-14.66702326 0.16389841 -11.17577889 -0.07135958 -7.62890625 -0.54711914 C-4.5559329 -0.93062059 -2.83777827 -1.06416685 0 0 Z " fill="#4BB5CB" transform="translate(99,88)"/>
<path d="M0 0 C-0.33 0.33 -0.66 0.66 -1 1 C-1.15582303 2.34015221 -1.25044142 3.68758903 -1.31640625 5.03515625 C-1.35830078 5.84404297 -1.40019531 6.65292969 -1.44335938 7.48632812 C-1.48267578 8.33646484 -1.52199219 9.18660156 -1.5625 10.0625 C-1.60568359 10.91650391 -1.64886719 11.77050781 -1.69335938 12.65039062 C-1.79976702 14.76672037 -1.90041731 16.88333813 -2 19 C-3.65 19.33 -5.3 19.66 -7 20 C-6.97679688 18.79601562 -6.95359375 17.59203125 -6.9296875 16.3515625 C-6.91093137 14.77604785 -6.89273101 13.20052652 -6.875 11.625 C-6.85824219 10.8309375 -6.84148437 10.036875 -6.82421875 9.21875 C-6.80664527 7.14507985 -6.89664832 5.07116759 -7 3 C-7.66 2.34 -8.32 1.68 -9 1 C-3.375 -1.125 -3.375 -1.125 0 0 Z " fill="#788386" transform="translate(109,99)"/>
<path d="M0 0 C-0.33 0.33 -0.66 0.66 -1 1 C-1.15582303 2.34015221 -1.25044142 3.68758903 -1.31640625 5.03515625 C-1.35830078 5.84404297 -1.40019531 6.65292969 -1.44335938 7.48632812 C-1.48267578 8.33646484 -1.52199219 9.18660156 -1.5625 10.0625 C-1.60568359 10.91650391 -1.64886719 11.77050781 -1.69335938 12.65039062 C-1.79976702 14.76672037 -1.90041731 16.88333813 -2 19 C-3.65 19.66 -5.3 20.32 -7 21 C-6.98839844 19.72382812 -6.97679688 18.44765625 -6.96484375 17.1328125 C-6.95546583 15.46354313 -6.94636563 13.79427217 -6.9375 12.125 C-6.92912109 11.28324219 -6.92074219 10.44148438 -6.91210938 9.57421875 C-6.90888672 8.76855469 -6.90566406 7.96289062 -6.90234375 7.1328125 C-6.89710693 6.38918457 -6.89187012 5.64555664 -6.88647461 4.87939453 C-6.88213364 2.90867432 -6.88213364 2.90867432 -8 1 C-2.25 -1.125 -2.25 -1.125 0 0 Z " fill="#788386" transform="translate(109,57)"/>
<path d="M0 0 C0.66 0.33 1.32 0.66 2 1 C1.01 2.485 1.01 2.485 0 4 C-0.38499891 5.65549531 -0.72793135 7.3222433 -1 9 C-6.10334017 10.905247 -10.46342706 12.42589023 -16 12 C-16.33 10.02 -16.66 8.04 -17 6 C-15.948125 6.061875 -14.89625 6.12375 -13.8125 6.1875 C-9.77192149 5.98878302 -8.21455401 5.32162234 -5 3 C-2 1 -2 1 0 0 Z " fill="#11B1D3" transform="translate(107,41)"/>
<path d="M0 0 C1.98 0 3.96 0 6 0 C6 6.27 6 12.54 6 19 C6.66 19.33 7.32 19.66 8 20 C5.69 19.67 3.38 19.34 1 19 C0.67 12.73 0.34 6.46 0 0 Z " fill="#CDD3D4" transform="translate(38,103)"/>
<path d="M0 0 C2.875 -0.1875 2.875 -0.1875 6 0 C8.52043679 3.78065518 8.15407342 6.70607391 8 11.0625 C7.90603267 13.7335215 7.90677464 16.32268407 8 19 C8.66 19.66 9.32 20.32 10 21 C4.125 20.125 4.125 20.125 3 19 C2.76281257 15.3894803 2.60344319 11.78580251 2.48242188 8.16992188 C2.4665658 3.61024467 2.4665658 3.61024467 0 0 Z " fill="#AEB7B8" transform="translate(31,60)"/>
<path d="M0 0 C0.7989267 -0.0033284 1.59785339 -0.0066568 2.42098999 -0.01008606 C4.10340811 -0.01511833 5.78583608 -0.01749554 7.46826172 -0.01733398 C9.99594295 -0.01950761 12.52317769 -0.03766758 15.05078125 -0.05664062 C24.70039557 -0.08895039 33.87686169 0.44502623 43.3984375 2.16796875 C43.3984375 2.82796875 43.3984375 3.48796875 43.3984375 4.16796875 C41.60667857 4.02327344 39.81503608 3.87713614 38.0234375 3.73046875 C37.02570313 3.64925781 36.02796875 3.56804688 35 3.484375 C33.03323234 3.31158955 31.06685099 3.13126697 29.10449219 2.9140625 C23.18112775 2.26492667 17.35553303 2.01121874 11.3984375 2.04296875 C10.05616089 2.04586914 10.05616089 2.04586914 8.68676758 2.04882812 C-0.09556347 2.10458404 -8.84149839 2.56899001 -17.6015625 3.16796875 C-17.2715625 2.50796875 -16.9415625 1.84796875 -16.6015625 1.16796875 C-11.06269515 0.202369 -5.61147488 0.00837081 0 0 Z " fill="#566163" transform="translate(53.6015625,0.83203125)"/>
<path d="M0 0 C2.375 -0.125 2.375 -0.125 5 0 C7 2 7 2 7.22705078 3.87939453 C7.21657715 4.62302246 7.20610352 5.36665039 7.1953125 6.1328125 C7.18886719 6.93847656 7.18242188 7.74414062 7.17578125 8.57421875 C7.15902344 9.41597656 7.14226563 10.25773437 7.125 11.125 C7.11597656 11.97449219 7.10695313 12.82398437 7.09765625 13.69921875 C7.07405647 15.79959884 7.03818483 17.89983444 7 20 C11.95 20.33 16.9 20.66 22 21 C22 21.33 22 21.66 22 22 C19.95863605 22.05451714 17.91684144 22.09302485 15.875 22.125 C14.73804688 22.14820312 13.60109375 22.17140625 12.4296875 22.1953125 C9 22 9 22 3 20 C3 13.73 3 7.46 3 1 C2.01 0.67 1.02 0.34 0 0 Z " fill="#B2B9BB" transform="translate(32,102)"/>
<path d="M0 0 C1.65 0.33 3.3 0.66 5 1 C5.33 6.94 5.66 12.88 6 19 C3.69 18.67 1.38 18.34 -1 18 C-0.505 9.09 -0.505 9.09 0 0 Z " fill="#748184" transform="translate(29,61)"/>
<path d="M0 0 C-0.33 5.61 -0.66 11.22 -1 17 C-2.65 17.33 -4.3 17.66 -6 18 C-6 12.06 -6 6.12 -6 0 C-2 -1 -2 -1 0 0 Z " fill="#98A8AB" transform="translate(81,64)"/>
<path d="M0 0 C1.65 0 3.3 0 5 0 C5 5.94 5 11.88 5 18 C3.35 18 1.7 18 0 18 C0 12.06 0 6.12 0 0 Z " fill="#CDD3D4" transform="translate(67,64)"/>
<path d="M0 0 C0.33 0 0.66 0 1 0 C1.06616571 3.6685211 1.04781555 7.33124325 1 11 C0.99613281 12.14984375 0.99226563 13.2996875 0.98828125 14.484375 C0.69960155 23.28412865 0.69960155 23.28412865 -2.6875 26.75 C-5.84349981 27.94094333 -8.64573871 28.68054654 -12 29 C-9.02881405 26.46898975 -6.81583379 25.65179251 -3 25 C-3.03480469 23.78183594 -3.06960937 22.56367187 -3.10546875 21.30859375 C-3.13362512 19.68490972 -3.16092329 18.06121065 -3.1875 16.4375 C-3.22520508 15.23770508 -3.22520508 15.23770508 -3.26367188 14.01367188 C-3.33054885 8.55205195 -2.4909519 4.87075897 0 0 Z " fill="#5E6769" transform="translate(110,93)"/>
<path d="M0 0 C2.31 0 4.62 0 7 0 C6.67 6.27 6.34 12.54 6 19 C4.68 19.33 3.36 19.66 2 20 C2 13.73 2 7.46 2 1 C1.34 0.67 0.68 0.34 0 0 Z " fill="#8B989B" transform="translate(96,101)"/>
<path d="M0 0 C0.05790353 3.29159316 0.09356261 6.58305603 0.125 9.875 C0.14175781 10.81214844 0.15851563 11.74929687 0.17578125 12.71484375 C0.18222656 13.61074219 0.18867187 14.50664062 0.1953125 15.4296875 C0.20578613 16.25710449 0.21625977 17.08452148 0.22705078 17.93701172 C0 20 0 20 -2 22 C-2.99 21.67 -3.98 21.34 -5 21 C-4.9131197 18.0610493 -4.80626233 15.12518711 -4.6875 12.1875 C-4.66494141 11.35412109 -4.64238281 10.52074219 -4.61914062 9.66210938 C-4.5659668 8.45844727 -4.5659668 8.45844727 -4.51171875 7.23046875 C-4.47244263 6.12288208 -4.47244263 6.12288208 -4.43237305 4.99291992 C-3.94876149 2.76382835 -2.6393633 0 0 0 Z " fill="#60696B" transform="translate(111,13)"/>
<path d="M0 0 C-0.33 0.66 -0.66 1.32 -1 2 C-1.23172827 4.54615009 -1.41894529 7.07396225 -1.5625 9.625 C-1.60568359 10.33140625 -1.64886719 11.0378125 -1.69335938 11.765625 C-1.79944751 13.51018537 -1.90022889 15.25506697 -2 17 C-3.32 17.33 -4.64 17.66 -6 18 C-6 12.06 -6 6.12 -6 0 C-2 -1 -2 -1 0 0 Z " fill="#94A4A8" transform="translate(82,22)"/>
<path d="M0 0 C0.99 0 1.98 0 3 0 C3 5.94 3 11.88 3 18 C0.69 18.33 -1.62 18.66 -4 19 C-3.01 18.67 -2.02 18.34 -1 18 C-1.01160156 16.86820313 -1.02320312 15.73640625 -1.03515625 14.5703125 C-1.04453454 13.08854331 -1.0536347 11.60677235 -1.0625 10.125 C-1.07087891 9.37863281 -1.07925781 8.63226563 -1.08789062 7.86328125 C-1.11328125 2.2265625 -1.11328125 2.2265625 0 0 Z " fill="#849498" transform="translate(79,105)"/>
<path d="M0 0 C5.625 -0.25 5.625 -0.25 9 2 C9.99 2.33 10.98 2.66 12 3 C12 4.98 12 6.96 12 9 C12.99 9.33 13.98 9.66 15 10 C13.56208484 9.85831863 12.1246763 9.71148957 10.6875 9.5625 C9.88699219 9.48128906 9.08648437 9.40007812 8.26171875 9.31640625 C6 9 6 9 3 8 C2.814375 6.576875 2.814375 6.576875 2.625 5.125 C2.28312823 1.91332809 2.28312823 1.91332809 0 0 Z " fill="#4AD2EE" transform="translate(30,87)"/>
<path d="M0 0 C0.66 0 1.32 0 2 0 C2 0.66 2 1.32 2 2 C2.84304687 2.12117188 3.68609375 2.24234375 4.5546875 2.3671875 C5.65039062 2.53476562 6.74609375 2.70234375 7.875 2.875 C8.96554688 3.03742187 10.05609375 3.19984375 11.1796875 3.3671875 C14 4 14 4 16 6 C13.03 5.505 13.03 5.505 10 5 C10 5.99 10 6.98 10 8 C10.66 8.33 11.32 8.66 12 9 C8.05254001 10.12784571 6.41382297 10.19158471 2.625 8.4375 C0 6 0 6 -0.375 2.75 C-0.25125 1.8425 -0.1275 0.935 0 0 Z " fill="#19515E" transform="translate(18,33)"/>
<path d="M0 0 C3.63 0.33 7.26 0.66 11 1 C11 6.61 11 12.22 11 18 C11.66 18.33 12.32 18.66 13 19 C11.35 19 9.7 19 8 19 C8 13.39 8 7.78 8 2 C5.36 1.67 2.72 1.34 0 1 C0 0.67 0 0.34 0 0 Z " fill="#87999C" transform="translate(83,61)"/>
<path d="M0 0 C1.54880859 0.09087891 1.54880859 0.09087891 3.12890625 0.18359375 C15.74766097 0.91064234 28.37137646 1.47479247 41 2 C41 2.33 41 2.66 41 3 C27.635 3.495 27.635 3.495 14 4 C13.67 5.32 13.34 6.64 13 8 C12.01 8 11.02 8 10 8 C10 6.02 10 4.04 10 2 C6.7 1.67 3.4 1.34 0 1 C0 0.67 0 0.34 0 0 Z " fill="#BBEFF9" transform="translate(34,46)"/>
<path d="M0 0 C2.31 0 4.62 0 7 0 C6.67 0.66 6.34 1.32 6 2 C5.91691362 3.37548156 5.89263984 4.75485796 5.90234375 6.1328125 C5.90556641 6.93847656 5.90878906 7.74414062 5.91210938 8.57421875 C5.92048828 9.41597656 5.92886719 10.25773437 5.9375 11.125 C5.94426758 12.39923828 5.94426758 12.39923828 5.95117188 13.69921875 C5.96297126 15.79950909 5.98090694 17.8997633 6 20 C6.99 20.33 7.98 20.66 9 21 C7.02 20.67 5.04 20.34 3 20 C2.95101562 18.72382812 2.90203125 17.44765625 2.8515625 16.1328125 C2.77653809 14.46351928 2.70099012 12.79424954 2.625 11.125 C2.57859375 9.86236328 2.57859375 9.86236328 2.53125 8.57421875 C2.49257813 7.76855469 2.45390625 6.96289062 2.4140625 6.1328125 C2.3826416 5.38918457 2.3512207 4.64555664 2.31884766 3.87939453 C2.14580449 1.75989026 2.14580449 1.75989026 0 0 Z " fill="#A5AEB1" transform="translate(31,18)"/>
<path d="M0 0 C0.99 0 1.98 0 3 0 C3.02684312 2.81256281 3.04676188 5.62487241 3.0625 8.4375 C3.07087891 9.23994141 3.07925781 10.04238281 3.08789062 10.86914062 C3.0965143 12.91295221 3.0522815 14.95683902 3 17 C2 18 2 18 -1.37890625 18.09765625 C-2.77347077 18.09098369 -4.16801743 18.07902532 -5.5625 18.0625 C-6.27341797 18.05798828 -6.98433594 18.05347656 -7.71679688 18.04882812 C-9.47790013 18.03700864 -11.23896036 18.01907263 -13 18 C-13 17.67 -13 17.34 -13 17 C-8.71 17 -4.42 17 0 17 C0 11.39 0 5.78 0 0 Z " fill="#D3D6D7" transform="translate(67,106)"/>
<path d="M0 0 C0.66 0 1.32 0 2 0 C2 5.94 2 11.88 2 18 C4.31 18.33 6.62 18.66 9 19 C9.99 19.66 10.98 20.32 12 21 C5.44638413 20.47148259 -0.88352268 19.53639635 -7 17 C-7.33 16.34 -7.66 15.68 -8 15 C-5.36 15.66 -2.72 16.32 0 17 C0 11.39 0 5.78 0 0 Z " fill="#5A6568" transform="translate(29,103)"/>
<path d="M0 0 C0.33 1.32 0.66 2.64 1 4 C-4.16923077 8.06153846 -4.16923077 8.06153846 -8.375 7.75 C-9.24125 7.5025 -10.1075 7.255 -11 7 C-8.01896061 0.63141586 -6.99623247 -0.15209201 0 0 Z " fill="#145564" transform="translate(110,35)"/>
<path d="M0 0 C1.485 0.99 1.485 0.99 3 2 C3.34057617 3.97119141 3.34057617 3.97119141 3.29296875 6.3515625 C3.28330078 7.20234375 3.27363281 8.053125 3.26367188 8.9296875 C3.23853516 9.81914062 3.21339844 10.70859375 3.1875 11.625 C3.16719727 12.97078125 3.16719727 12.97078125 3.14648438 14.34375 C3.11106925 16.56309789 3.06168461 18.78125188 3 21 C3.99 21.33 4.98 21.66 6 22 C5.34 22.33 4.68 22.66 4 23 C3.34 22.67 2.68 22.34 2 22 C2 21.34 2 20.68 2 20 C1.34 20 0.68 20 0 20 C0 13.4 0 6.8 0 0 Z " fill="#676D6E" transform="translate(18,13)"/>
<path d="M0 0 C0.99 0 1.98 0 3 0 C3 5.94 3 11.88 3 18 C5.31 18 7.62 18 10 18 C10 18.33 10 18.66 10 19 C2.25 19.125 2.25 19.125 0 18 C0 12.06 0 6.12 0 0 Z " fill="#D5D9DA" transform="translate(41,21)"/>
<path d="M0 0 C1.98 0 3.96 0 6 0 C5.67 6.27 5.34 12.54 5 19 C4.01 19.33 3.02 19.66 2 20 C2 13.73 2 7.46 2 1 C1.34 0.67 0.68 0.34 0 0 Z " fill="#8C999C" transform="translate(97,59)"/>
<path d="M0 0 C0 0.33 0 0.66 0 1 C-1.65 1 -3.3 1 -5 1 C-5 6.94 -5 12.88 -5 19 C-5.99 19 -6.98 19 -8 19 C-8 13.06 -8 7.12 -8 1 C-5.29120665 -0.35439668 -2.99066732 -0.06501451 0 0 Z " fill="#D5D9DA" transform="translate(75,21)"/>
<path d="M0 0 C1.32 0 2.64 0 4 0 C4 6.27 4 12.54 4 19 C3.01 19 2.02 19 1 19 C0.67 12.73 0.34 6.46 0 0 Z " fill="#A1AFB2" transform="translate(94,102)"/>
<path d="M0 0 C0.33 0 0.66 0 1 0 C1.0270043 1.45823212 1.04639787 2.91660675 1.0625 4.375 C1.07410156 5.18710937 1.08570312 5.99921875 1.09765625 6.8359375 C1 9 1 9 0 11 C-2.51171875 12.0703125 -2.51171875 12.0703125 -5.6875 13.125 C-6.72261719 13.47820313 -7.75773437 13.83140625 -8.82421875 14.1953125 C-12.02008266 15.00508859 -14.71897631 15.14757228 -18 15 C-18 14.67 -18 14.34 -18 14 C-11.07 12.515 -11.07 12.515 -4 11 C-3.67 8.69 -3.34 6.38 -3 4 C-1.5 1.5625 -1.5 1.5625 0 0 Z " fill="#0A788E" transform="translate(110,39)"/>
<path d="M0 0 C1.54880859 0.09087891 1.54880859 0.09087891 3.12890625 0.18359375 C15.74766097 0.91064234 28.37137646 1.47479247 41 2 C41 2.33 41 2.66 41 3 C27.635 3.495 27.635 3.495 14 4 C13.34 5.32 12.68 6.64 12 8 C11.67 6.35 11.34 4.7 11 3 C7.37 2.34 3.74 1.68 0 1 C0 0.67 0 0.34 0 0 Z " fill="#C2EFF8" transform="translate(34,88)"/>
<path d="M0 0 C0 1.98 0 3.96 0 6 C-4.455 6.495 -4.455 6.495 -9 7 C-9.33 5.02 -9.66 3.04 -10 1 C-6.56484998 0.37542727 -3.50935186 0 0 0 Z " fill="#15B6D8" transform="translate(100,88)"/>
<path d="M0 0 C3.34373475 0.55728913 6.03312999 1.35173889 9 3 C9 3.99 9 4.98 9 6 C9.66 6.33 10.32 6.66 11 7 C8.375 7.75 8.375 7.75 5 8 C1.625 6.0625 1.625 6.0625 -1 4 C-0.67 2.68 -0.34 1.36 0 0 Z " fill="#105565" transform="translate(19,77)"/>
<path d="M0 0 C0.66 0 1.32 0 2 0 C2 5.94 2 11.88 2 18 C0.68 18.33 -0.64 18.66 -2 19 C-1.85982174 16.02046641 -1.71313658 13.04150696 -1.5625 10.0625 C-1.52318359 9.21236328 -1.48386719 8.36222656 -1.44335938 7.48632812 C-1.40146484 6.67744141 -1.35957031 5.86855469 -1.31640625 5.03515625 C-1.27974854 4.2862915 -1.24309082 3.53742676 -1.20532227 2.76586914 C-1 1 -1 1 0 0 Z " fill="#78878B" transform="translate(81,63)"/>
<path d="M0 0 C0.33 0 0.66 0 1 0 C1.08687496 3.12482562 1.14034568 6.24934246 1.1875 9.375 C1.21263672 10.26445313 1.23777344 11.15390625 1.26367188 12.0703125 C1.27333984 12.92109375 1.28300781 13.771875 1.29296875 14.6484375 C1.3086792 15.43395996 1.32438965 16.21948242 1.34057617 17.02880859 C1.22818604 17.67930176 1.1157959 18.32979492 1 19 C0.01 19.66 -0.98 20.32 -2 21 C-2.05390357 18.06225537 -2.0936255 15.12549768 -2.125 12.1875 C-2.14175781 11.35412109 -2.15851563 10.52074219 -2.17578125 9.66210938 C-2.18222656 8.85966797 -2.18867187 8.05722656 -2.1953125 7.23046875 C-2.20578613 6.49207764 -2.21625977 5.75368652 -2.22705078 4.99291992 C-2 3 -2 3 0 0 Z " fill="#656D70" transform="translate(109,55)"/>
<path d="M0 0 C3.21666704 -0.21931821 5.43362303 -0.26828383 8.375 1.125 C10 3 10 3 10.25 6.1875 C10.1675 7.115625 10.085 8.04375 10 9 C8.02 9 6.04 9 4 9 C3.71125 7.88625 3.4225 6.7725 3.125 5.625 C2.30758671 1.99708908 2.30758671 1.99708908 0 0 Z " fill="#40CEEB" transform="translate(30,45)"/>
<path d="M0 0 C0.99 0.33 1.98 0.66 3 1 C3 6.94 3 12.88 3 19 C2.01 18.67 1.02 18.34 0 18 C0 12.06 0 6.12 0 0 Z " fill="#7D898C" transform="translate(31,19)"/>
<path d="M0 0 C0 5.94 0 11.88 0 18 C-0.99 18.33 -1.98 18.66 -3 19 C-3 13.06 -3 7.12 -3 1 C-1 0 -1 0 0 0 Z " fill="#747E80" transform="translate(107,16)"/>
<path d="M0 0 C0.66 0 1.32 0 2 0 C2 5.94 2 11.88 2 18 C1.01 18.33 0.02 18.66 -1 19 C-1.02683987 16.02077407 -1.04676037 13.04178705 -1.0625 10.0625 C-1.07087891 9.21236328 -1.07925781 8.36222656 -1.08789062 7.48632812 C-1.09111328 6.67744141 -1.09433594 5.86855469 -1.09765625 5.03515625 C-1.10289307 4.2862915 -1.10812988 3.53742676 -1.11352539 2.76586914 C-1 1 -1 1 0 0 Z " fill="#8C999C" transform="translate(100,18)"/>
<path d="M0 0 C-0.125 2.3125 -0.125 2.3125 -1 5 C-4.18557861 7.17198542 -6.00639052 8.10800103 -9.875 7.6875 C-10.57625 7.460625 -11.2775 7.23375 -12 7 C-8.61745788 2.23938516 -5.95567387 0 0 0 Z " fill="#3C5358" transform="translate(110,92)"/>
<path d="M0 0 C0.33 1.65 0.66 3.3 1 5 C-4.41538462 8.07692308 -4.41538462 8.07692308 -7.375 7.6875 C-7.91125 7.460625 -8.4475 7.23375 -9 7 C-8.3125 4.625 -8.3125 4.625 -7 2 C-4.52858057 0.7025048 -2.79207427 0 0 0 Z " fill="#3C5358" transform="translate(109,50)"/>
<path d="M0 0 C3.32104626 0.55350771 6.16244492 1.14091219 9 3 C10.25 5.125 10.25 5.125 11 7 C3.61538462 7.36923077 3.61538462 7.36923077 0.5 5.5 C0.005 5.005 -0.49 4.51 -1 4 C-0.67 2.68 -0.34 1.36 0 0 Z " fill="#3C5358" transform="translate(19,50)"/>
<path d="M0 0 C-0.99 1.485 -0.99 1.485 -2 3 C-2.38499891 4.65549531 -2.72793135 6.3222433 -3 8 C-4.98 8.66 -6.96 9.32 -9 10 C-9.25 4.375 -9.25 4.375 -7 1 C-2.5 -1.25 -2.5 -1.25 0 0 Z " fill="#10A0BD" transform="translate(109,42)"/>
<path d="M0 0 C1.98 0 3.96 0 6 0 C6 6.27 6 12.54 6 19 C6.66 19.33 7.32 19.66 8 20 C6.35 19.67 4.7 19.34 3 19 C3.03480469 17.79601562 3.06960937 16.59203125 3.10546875 15.3515625 C3.1336028 13.77605558 3.16090337 12.20053362 3.1875 10.625 C3.21263672 9.8309375 3.23777344 9.036875 3.26367188 8.21875 C3.29004405 6.14413852 3.15486462 4.06899135 3 2 C2.01 1.34 1.02 0.68 0 0 Z " fill="#DBDEDF" transform="translate(38,103)"/>
<path d="M0 0 C-0.66 0.66 -1.32 1.32 -2 2 C-2.30675232 4.89967757 -2.51173371 7.71783178 -2.625 10.625 C-2.66367188 11.42679688 -2.70234375 12.22859375 -2.7421875 13.0546875 C-2.83653931 15.03607556 -2.91936215 17.01800645 -3 19 C-3.66 19 -4.32 19 -5 19 C-5 13.39 -5 7.78 -5 2 C-6.65 2 -8.3 2 -10 2 C-10 1.67 -10 1.34 -10 1 C-6.59437148 0.22157062 -3.49234244 -0.09978121 0 0 Z " fill="#A2B1B4" transform="translate(99,60)"/>
<path d="M0 0 C4.455 0.99 4.455 0.99 9 2 C9.33 1.34 9.66 0.68 10 0 C10.66386719 0.20496094 11.32773437 0.40992188 12.01171875 0.62109375 C12.89472656 0.89050781 13.77773438 1.15992188 14.6875 1.4375 C15.55761719 1.70433594 16.42773438 1.97117187 17.32421875 2.24609375 C19.87025921 2.96344529 22.4003423 3.517541 25 4 C25 4.33 25 4.66 25 5 C7.72088627 5.56618455 7.72088627 5.56618455 1 2 C0.67 1.34 0.34 0.68 0 0 Z " fill="#8D9799" transform="translate(20,14)"/>
<path d="M0 0 C0.66 0 1.32 0 2 0 C2.3125 2.1875 2.3125 2.1875 2 5 C-1.42063272 9.45718809 -4.53997432 10.94631083 -10 12 C-13.4375 12.125 -13.4375 12.125 -16 12 C-16 11.67 -16 11.34 -16 11 C-9.07 9.515 -9.07 9.515 -2 8 C-1.67 5.69 -1.34 3.38 -1 1 C-0.67 0.67 -0.34 0.34 0 0 Z " fill="#0A7B93" transform="translate(108,84)"/>
<path d="M0 0 C-0.99 0 -1.98 0 -3 0 C-3 1.98 -3 3.96 -3 6 C-4.65 6 -6.3 6 -8 6 C-8 4.02 -8 2.04 -8 0 C-4.94736336 -0.98120464 -3.05263664 -0.98120464 0 0 Z " fill="#11A6C4" transform="translate(85,91)"/>
<path d="M0 0 C-0.99 0 -1.98 0 -3 0 C-3 1.98 -3 3.96 -3 6 C-4.65 6 -6.3 6 -8 6 C-8 4.02 -8 2.04 -8 0 C-4.94736336 -0.98120464 -3.05263664 -0.98120464 0 0 Z " fill="#11A6C4" transform="translate(85,49)"/>
<path d="M0 0 C1.65 0 3.3 0 5 0 C5 1.98 5 3.96 5 6 C3.35 6 1.7 6 0 6 C0 4.02 0 2.04 0 0 Z " fill="#60DAF3" transform="translate(67,91)"/>
<path d="M0 0 C1.65 0 3.3 0 5 0 C5 1.98 5 3.96 5 6 C3.35 6 1.7 6 0 6 C0 4.02 0 2.04 0 0 Z " fill="#60DAF3" transform="translate(67,49)"/>
<path d="M0 0 C1.32 0 2.64 0 4 0 C4 1.98 4 3.96 4 6 C4.99 6.33 5.98 6.66 7 7 C4.69 6.67 2.38 6.34 0 6 C0 4.02 0 2.04 0 0 Z " fill="#77E4FA" transform="translate(40,48)"/>
<path d="M0 0 C-2.9126624 2.9126624 -5.40242364 3.92171142 -9.55078125 4.125 C-12.03699721 4.125 -14.51540418 4.08684024 -17 4 C-12.0251208 0.68341387 -5.96431647 -0.38479461 0 0 Z " fill="#38B4CD" transform="translate(103,44)"/>
<path d="M0 0 C1.65 0 3.3 0 5 0 C4.67 0.99 4.34 1.98 4 3 C3.77202438 5.73289293 3.58331813 8.45042204 3.4375 11.1875 C3.39431641 11.93708984 3.35113281 12.68667969 3.30664062 13.45898438 C3.20077315 15.30578375 3.0999024 17.15286834 3 19 C2.67 19 2.34 19 2 19 C2 13.06 2 7.12 2 1 C1.34 0.67 0.68 0.34 0 0 Z " fill="#95A3A6" transform="translate(96,101)"/>
<path d="M0 0 C1.65 0 3.3 0 5 0 C5.33 1.98 5.66 3.96 6 6 C4.35 6 2.7 6 1 6 C0.67 4.02 0.34 2.04 0 0 Z " fill="#0EADCE" transform="translate(90,89)"/>
<path d="M0 0 C1.98 0.495 1.98 0.495 4 1 C4 2.98 4 4.96 4 7 C2.35 6.67 0.7 6.34 -1 6 C-0.67 4.02 -0.34 2.04 0 0 Z " fill="#0993B0" transform="translate(29,46)"/>
<path d="M0 0 C0.33 0.66 0.66 1.32 1 2 C0.525625 2.391875 0.05125 2.78375 -0.4375 3.1875 C-2.35179633 5.40808374 -2.61266988 7.13375709 -3 10 C-3.66 10 -4.32 10 -5 10 C-5 8.02 -5 6.04 -5 4 C-5.66 3.67 -6.32 3.34 -7 3 C-4.69 2.01 -2.38 1.02 0 0 Z " fill="#1891A9" transform="translate(109,82)"/>
<path d="M0 0 C1.485 0.99 1.485 0.99 3 2 C3.6875 5.625 3.6875 5.625 4 9 C2.68 8.67 1.36 8.34 0 8 C0 5.36 0 2.72 0 0 Z " fill="#047289" transform="translate(18,83)"/>
<path d="M0 0 C1.485 0.99 1.485 0.99 3 2 C3.6875 5.625 3.6875 5.625 4 9 C2.68 8.67 1.36 8.34 0 8 C0 5.36 0 2.72 0 0 Z " fill="#047289" transform="translate(18,41)"/>
<path d="M0 0 C0.66 0.33 1.32 0.66 2 1 C1.01 2.485 1.01 2.485 0 4 C-0.38499891 5.65549531 -0.72793135 7.3222433 -1 9 C-1.66 9 -2.32 9 -3 9 C-3 7.02 -3 5.04 -3 3 C-3.66 2.67 -4.32 2.34 -5 2 C-2.625 0.9375 -2.625 0.9375 0 0 Z " fill="#1892AA" transform="translate(107,41)"/>
<path d="M0 0 C0.99 0 1.98 0 3 0 C3 1.98 3 3.96 3 6 C1.35 6 -0.3 6 -2 6 C-1.34 4.02 -0.68 2.04 0 0 Z " fill="#455F65" transform="translate(98,53)"/>
<path d="M0 0 C6.625 -0.25 6.625 -0.25 10 2 C7.25 2.6875 7.25 2.6875 4 3 C1.625 1.5625 1.625 1.5625 0 0 Z " fill="#105869" transform="translate(20,40)"/>
</svg>
