<?xml version="1.0" standalone="no"?>
<!DOCTYPE svg PUBLIC "-//W3C//DTD SVG 20010904//EN"
 "http://www.w3.org/TR/2001/REC-SVG-20010904/DTD/svg10.dtd">
<svg version="1.0" xmlns="http://www.w3.org/2000/svg"
 width="128.000000pt" height="128.000000pt" viewBox="0 0 128.000000 128.000000"
 preserveAspectRatio="xMidYMid meet">
<metadata>
Created by potrace 1.16, written by Peter Selinger 2001-2019
</metadata>
<g transform="translate(0.000000,128.000000) scale(0.100000,-0.100000)"
fill="#000000" stroke="none">
<path d="M0 640 l0 -640 640 0 640 0 0 640 0 640 -640 0 -640 0 0 -640z m810
568 c135 -41 239 -115 314 -225 153 -224 138 -522 -36 -717 -71 -80 -155 -124
-313 -163 -99 -25 -237 -13 -365 31 -126 45 -156 62 -216 129 -98 109 -149
258 -141 412 19 385 388 644 757 533z"/>
<path d="M510 1164 c-267 -70 -443 -333 -402 -601 24 -160 134 -320 270 -390
97 -52 158 -67 262 -67 232 0 428 138 509 359 69 186 17 410 -128 556 -134
134 -334 190 -511 143z m90 -93 c0 -24 -4 -27 -58 -36 -39 -6 -43 -5 -40 11 2
11 18 23 43 30 54 17 55 17 55 -5z m150 4 l25 -14 -32 -1 c-23 0 -33 5 -33 15
0 18 8 18 40 0z m-282 -37 c-3 -7 -12 -14 -21 -16 -12 -2 -15 1 -11 12 7 19
38 22 32 4z m327 -104 c66 -31 97 -74 103 -139 6 -69 -24 -104 -117 -140 -78
-29 -117 -62 -126 -106 l-7 -29 -94 0 c-104 0 -112 7 -76 62 25 38 57 61 132
95 79 36 100 55 100 94 0 57 -84 52 -177 -11 l-58 -39 -47 47 c-27 25 -48 54
-48 63 0 34 132 111 222 128 61 12 135 3 193 -25z m-159 -490 c53 -25 60 -82
14 -116 -75 -55 -210 -23 -210 51 0 66 114 104 196 65z"/>
</g>
</svg>
